# xmcd
# 
# Track frame offsets:
#     150
#     14533
#     27058
#     40110
#     56583
#     71812
#     83965
#     99092
#     111731
#     131210
#     143906
# 
# Disc length: 2048
# 
# Revision: 0
# Processed by: cddbd v1.5.2PL0 Copyright (c) Steve Scherf et al.
# Submitted via: BonkEnc v1.0.8
# 
DISCID=9a07fe0b
DTITLE=Highwaymen - The Road Goes on Forever
DYEAR=1995
DGENRE=Country
TTITLE0=The Devil's Right Hand
TTITLE1=Live Forever
TTITLE2=Everyone Gets Crazy
TTITLE3=It Is What It Is
TTITLE4=I Do Believe
TTITLE5=End of Understanding
TTITLE6=True Love Travels  on a Gravel Road
TTITLE7=Death and Hell
TTITLE8=Waiting for a Long Time
TTITLE9=Here Comes That Rainbow Again
TTITLE10=The Road Goes on Forever
EXTD=
EXTT0=
EXTT1=
EXTT2=
EXTT3=
EXTT4=
EXTT5=
EXTT6=
EXTT7=
EXTT8=
EXTT9=
EXTT10=
PLAYORDER=
